<svg width="20" height="20" viewBox="0 0 20 20" fill="none" xmlns="http://www.w3.org/2000/svg">
<path d="M10.4047 17.1979C10.1504 17.0603 9.84957 17.0603 9.59531 17.1979L4.61265 19.8947C3.95666 20.2498 3.20132 19.655 3.32969 18.8844L4.26716 13.2573C4.31954 12.943 4.21956 12.6217 4.00117 12.4025L0.281301 8.6696C-0.2984 8.08787 0.0762249 7.05156 0.873216 7.03222L5.94615 6.90911C6.28988 6.90077 6.5985 6.68315 6.73939 6.34975L9.1864 0.559604C9.50173 -0.186534 10.4983 -0.186535 10.8136 0.559603L13.2606 6.34975C13.4015 6.68315 13.7101 6.90077 14.0538 6.90911L19.1268 7.03222C19.9238 7.05156 20.2984 8.08787 19.7187 8.6696L15.9988 12.4025C15.7804 12.6217 15.6805 12.943 15.7328 13.2573L16.6703 18.8844C16.7987 19.655 16.0433 20.2498 15.3874 19.8947L10.4047 17.1979Z" fill="url(#paint0_linear_11_7416)"/>
<path d="M10.4047 17.1979C10.1504 17.0603 9.84957 17.0603 9.59531 17.1979L4.61265 19.8947C3.95666 20.2498 3.20132 19.655 3.32969 18.8844L4.26716 13.2573C4.31954 12.943 4.21956 12.6217 4.00117 12.4025L0.281301 8.6696C-0.2984 8.08787 0.0762249 7.05156 0.873216 7.03222L5.94615 6.90911C6.28988 6.90077 6.5985 6.68315 6.73939 6.34975L9.1864 0.559604C9.50173 -0.186534 10.4983 -0.186535 10.8136 0.559603L13.2606 6.34975C13.4015 6.68315 13.7101 6.90077 14.0538 6.90911L19.1268 7.03222C19.9238 7.05156 20.2984 8.08787 19.7187 8.6696L15.9988 12.4025C15.7804 12.6217 15.6805 12.943 15.7328 13.2573L16.6703 18.8844C16.7987 19.655 16.0433 20.2498 15.3874 19.8947L10.4047 17.1979Z" fill="url(#paint1_linear_11_7416)"/>
<path d="M12.1345 8.05655L10.2414 3.16519C10.1578 2.94933 9.85969 2.94933 9.77615 3.16518L7.88308 8.05655C7.84567 8.15319 7.75503 8.21712 7.65358 8.21842L2.62431 8.28269C2.39872 8.28557 2.29176 8.56879 2.45668 8.72652L6.35745 12.4572C6.42611 12.5228 6.52488 12.5436 6.61321 12.5109L16.7198 8.77059C16.9818 8.67363 16.9164 8.27659 16.6379 8.27303L12.364 8.21842C12.2625 8.21712 12.1719 8.15319 12.1345 8.05655Z" fill="#FFFA88"/>
<defs>
<linearGradient id="paint0_linear_11_7416" x1="10" y1="0" x2="10" y2="20" gradientUnits="userSpaceOnUse">
<stop stop-color="#FFC700"/>
<stop offset="1" stop-color="#FFE600"/>
</linearGradient>
<linearGradient id="paint1_linear_11_7416" x1="10" y1="0" x2="10" y2="20" gradientUnits="userSpaceOnUse">
<stop stop-color="#FFB800"/>
<stop offset="1" stop-color="#FFF500"/>
</linearGradient>
</defs>
</svg>
